<svg xmlns="http://www.w3.org/2000/svg" version="1.1" xmlns:xlink="http://www.w3.org/1999/xlink" width="493" height="251"><svg xmlns="http://www.w3.org/2000/svg" width="493" height="251" fill="none"><path fill="#000" fill-rule="evenodd" d="M1.95 2.753c1.074 1.514 9.058 14.467 17.743 28.784a45664.2 45664.2 0 0 0 31.182 51.31 40042.09 40042.09 0 0 1 31.027 51.061c8.6 14.179 16.646 27.357 17.882 29.284 1.236 1.928 7.427 12.064 13.757 22.527 34.988 57.825 36.24 59.773 40.03 62.279 7.28 4.814 17.378 3.731 23.083-2.477 1.382-1.504 10.324-16.251 19.871-32.77 17.587-30.435 22.529-38.953 34.491-59.456 3.658-6.27 6.508-11.542 6.332-11.717-.174-.174-2.727.388-5.672 1.25-3.795 1.113-8.017 1.441-14.493 1.129-17.889-.863-28.416-8.43-41.324-29.705-4.214-6.948-8.676-14.209-9.915-16.136-1.237-1.928-6.749-10.938-12.247-20.024-26.982-44.585-41.796-68.846-43.63-71.451-1.111-1.578-3.868-3.709-6.127-4.734C100.114.171 96.43.042 49.917.022L0 0l1.95 2.753ZM491.049 248.247c-1.073-1.514-9.057-14.467-17.742-28.784a46899.398 46899.398 0 0 0-31.182-51.311 39420.49 39420.49 0 0 1-31.027-51.06c-8.6-14.179-16.646-27.357-17.882-29.284-1.236-1.928-7.427-12.065-13.757-22.527-34.988-57.825-36.239-59.773-40.03-62.28-7.28-4.813-17.378-3.73-23.083 2.478-1.382 1.504-10.324 16.25-19.871 32.77-17.587 30.435-22.529 38.953-34.491 59.456-3.658 6.27-6.508 11.542-6.332 11.717.174.174 2.727-.388 5.672-1.25 3.795-1.113 8.017-1.441 14.493-1.129 17.889.863 28.416 8.43 41.324 29.705 4.214 6.948 8.676 14.209 9.915 16.136 1.237 1.928 6.749 10.938 12.247 20.024 26.982 44.586 41.796 68.846 43.63 71.451 1.111 1.578 3.868 3.709 6.127 4.734 3.826 1.736 7.511 1.865 54.024 1.885L493 251l-1.951-2.753Z" clip-rule="evenodd"></path></svg><style>@media (prefers-color-scheme: light) { :root { filter: none; } }
@media (prefers-color-scheme: dark) { :root { filter: invert(100%); } }
</style></svg>