<svg width="493" height="251" viewBox="0 0 493 251" fill="none" xmlns="http://www.w3.org/2000/svg">
<path fill-rule="evenodd" clip-rule="evenodd" d="M1.94699 2.75C3.01799 4.262 10.986 17.2 19.654 31.5C28.322 45.8 42.327 68.863 50.775 82.75C59.224 96.637 73.158 119.587 81.74 133.75C90.323 147.913 98.354 161.075 99.587 163C100.821 164.925 106.999 175.05 113.317 185.5C148.236 243.257 149.485 245.203 153.268 247.706C160.534 252.514 170.612 251.432 176.305 245.232C177.685 243.73 186.609 229 196.137 212.5C213.69 182.101 218.622 173.593 230.56 153.114C234.211 146.852 237.055 141.586 236.88 141.411C236.706 141.237 234.158 141.799 231.219 142.66C227.431 143.771 223.218 144.099 216.755 143.787C198.901 142.925 188.395 135.367 175.512 114.117C171.306 107.178 166.853 99.925 165.617 98C164.382 96.075 158.881 87.075 153.394 78C126.465 33.467 111.68 9.235 109.85 6.633C108.741 5.057 105.989 2.929 103.735 1.905C99.916 0.170999 96.239 0.0420032 49.818 0.0220032L0 0L1.94699 2.75ZM322.636 1.38699C320.986 2.10599 318.581 3.79199 317.292 5.13199C314.144 8.40499 255.671 108.869 256.457 109.654C256.659 109.856 258.807 109.322 261.23 108.467C266.454 106.623 279.147 106.393 285.302 108.03C292.615 109.976 300.8 114.963 306.368 120.868C309.444 124.131 316.718 134.837 323.657 146.318C330.246 157.218 341.966 176.568 349.703 189.318C357.441 202.068 368.241 219.87 373.703 228.879C381.261 241.341 384.575 245.884 387.562 247.879L391.488 250.5L441.812 250.777C469.49 250.929 492.136 250.779 492.136 250.443C492.136 250.107 488.375 243.683 483.777 236.166C479.18 228.65 468.31 210.8 459.622 196.5C433.613 153.689 412.988 119.767 410.23 115.263C408.803 112.932 402.792 103.032 396.872 93.263C390.951 83.493 382.062 68.975 377.118 61C372.173 53.025 367.816 45.831 367.434 45.012C366.451 42.907 345.64 8.98899 343.585 6.14499C339.84 0.959989 329.17 -1.46301 322.636 1.38699Z" fill="black"/>
</svg>
